<svg width="170" height="330" viewBox="0 0 170 330" fill="none" xmlns="http://www.w3.org/2000/svg">
  <defs>
    <linearGradient id="g2" x1="23" y1="20" x2="140" y2="310" gradientUnits="userSpaceOnUse">
      <stop stop-color="#D1FAE5" stop-opacity="0.86"/>
      <stop offset="1" stop-color="#34D399" stop-opacity="0.64"/>
    </linearGradient>
  </defs>
  <path d="M86 15C99 53 122 84 137 121C151 158 152 193 141 228C131 263 110 290 86 316C62 290 41 263 31 228C20 193 21 158 35 121C50 84 73 53 86 15Z" fill="url(#g2)"/>
  <path d="M86 38V296" stroke="#065F46" stroke-opacity="0.40" stroke-width="4" stroke-linecap="round"/>
  <path d="M86 74L126 98M86 102L131 132M86 132L132 167M86 164L128 203M86 196L123 237M86 74L46 98M86 102L41 132M86 132L40 167M86 164L44 203M86 196L49 237" stroke="#065F46" stroke-width="3.4" stroke-linecap="round" stroke-opacity="0.30"/>
</svg>